 Full Credits To Feel Free :)

 ######## ######## ######## ##          ######## ########  ######## ######## 
 ##       ##       ##       ##          ##       ##     ## ##       ##       
 ##       ##       ##       ##          ##       ##     ## ##       ##       
 ######   ######   ######   ##          ######   ########  ######   ######   
 ##       ##       ##       ##          ##       ##   ##   ##       ##       
 ##       ##       ##       ##          ##       ##    ##  ##       ##       
 ##       ######## ######## ########    ##       ##     ## ######## ########

 Genre:Horror
 Language:English  http://www.imdb.com/title/tt1904850/
 Source:DVDSCR Thanks!

 Format : AVI
 Format/Info : Audio Video Interleave
 File size : 745 MiB
 Duration : 1h 16mn
 Overall bit rate : 1 370 Kbps

 Video
 ID : 0
 Format : MPEG-4 Visual
 Format profile : Advanced Simple@L5
 Format settings, BVOP : Yes
 Format settings, QPel : No
 Format settings, GMC : No warppoints
 Format settings, Matrix : Default (H.263)
 Codec ID : XVID
 Codec ID/Hint : XviD
 Duration : 1h 16mn
 Bit rate : 1 137 Kbps
 Width : 640 pixels
 Height : 368 pixels
 Display aspect ratio : 16:9
 Frame rate : 23.976 fps
 Color space : YUV
 Chroma subsampling : 4:2:0
 Bit depth : 8 bits
 Scan type : Progressive
 Bits/(Pixel*Frame) : 0.201
 Stream size : 619 MiB (83%)
 Writing library : XviD 1.2.1 (UTC 2008-12-04)

 Audio
 ID : 1
 Format : AC-3
 Format/Info : Audio Coding 3
 Mode extension : CM (complete main)
 Codec ID : 2000
 Duration : 1h 16mn
 Bit rate mode : Constant
 Bit rate : 224 Kbps
 Channel(s) : 2 channels
 Channel positions : Front: L R
 Sampling rate : 48.0 KHz
 Bit depth : 16 bits
 Stream size : 122 MiB (16%)
 Alignment : Aligned on interleaves
 Interleave, duration : 42 ms (1.00 video frame)
 Interleave, preload duration : 512 ms






==================================          
http://thepiratebay.org/user/hiest
==================================






 Screen Shots:
  http://leetleech.org/images/66620865322310055523.png
  http://leetleech.org/images/97474407034290265413.png
  http://leetleech.org/images/10097169823845013323.png
  http://leetleech.org/images/88536891614655640441.png
  http://leetleech.org/images/28524273175163580739.png


 Plot:
 A military weapons manufacturer creates a chemical weapon that causes victims 
 to become blood-lusting killers. A lab accident causes the building to go into 
 lock-down and the employees are trapped inside with the crazed killers.

 Full Credits To Feel Free :)

 ######## ######## ######## ##          ######## ########  ######## ######## 
 ##       ##       ##       ##          ##       ##     ## ##       ##       
 ##       ##       ##       ##          ##       ##     ## ##       ##       
 ######   ######   ######   ##          ######   ########  ######   ######   
 ##       ##       ##       ##          ##       ##   ##   ##       ##       
 ##       ##       ##       ##          ##       ##    ##  ##       ##       
 ##       ######## ######## ########    ##       ##     ## ######## ######## 